<svg xmlns="http://www.w3.org/2000/svg" width="776" height="84" viewBox="0 0 776 84" role="img" aria-labelledby="ttl dsc" preserveAspectRatio="xMidYMid meet"><title id="ttl">Most used languages</title><desc id="dsc">Java 36.3%, TypeScript 31.3%, JavaScript 18.6%, Python 11.6%, Shell 1.2%, OCaml 0.4%, Other 0.5%</desc><style>.t{font-family:-apple-system,BlinkMacSystemFont,"Segoe UI","Noto Sans",Helvetica,Arial,sans-serif;font-size:11px;fill:#8b949e}.b{font-size:11.55px;font-weight:600}.n{fill:#e6edf3;font-weight:600}</style><text class="t b" x="4" y="16.1">Most used languages</text><g><rect x="4" y="26" width="277.12" height="8" fill="#b07219"/><rect x="283.12" y="26" width="238.68" height="8" fill="#3178c6"/><rect x="523.79" y="26" width="140.76" height="8" fill="#f1e05a"/><rect x="666.55" y="26" width="86.93" height="8" fill="#3572A5"/><rect x="755.48" y="26" width="7.38" height="8" fill="#89e051"/><rect x="764.86" y="26" width="1.5" height="8" fill="#ef7a08"/><rect x="768.26" y="26" width="1.74" height="8" fill="#6e7681"/></g><g><circle cx="8" cy="52.2" r="4" fill="#b07219"/><text class="t" x="18" y="56"><tspan class="n">Java</tspan><tspan dx="6">36.3%</tspan></text><circle cx="200" cy="52.2" r="4" fill="#3178c6"/><text class="t" x="210" y="56"><tspan class="n">TypeScript</tspan><tspan dx="6">31.3%</tspan></text><circle cx="392" cy="52.2" r="4" fill="#f1e05a"/><text class="t" x="402" y="56"><tspan class="n">JavaScript</tspan><tspan dx="6">18.6%</tspan></text><circle cx="584" cy="52.2" r="4" fill="#3572A5"/><text class="t" x="594" y="56"><tspan class="n">Python</tspan><tspan dx="6">11.6%</tspan></text><circle cx="8" cy="72.2" r="4" fill="#89e051"/><text class="t" x="18" y="76"><tspan class="n">Shell</tspan><tspan dx="6">1.2%</tspan></text><circle cx="200" cy="72.2" r="4" fill="#ef7a08"/><text class="t" x="210" y="76"><tspan class="n">OCaml</tspan><tspan dx="6">0.4%</tspan></text><circle cx="392" cy="72.2" r="4" fill="#6e7681"/><text class="t" x="402" y="76"><tspan class="n">Other</tspan><tspan dx="6">0.5%</tspan></text></g></svg>